<svg width="196" height="58" viewBox="0 0 196 58" fill="none" xmlns="http://www.w3.org/2000/svg">
<g clip-path="url(#clip0_1929_1350)">
<path d="M37.697 33.4679C37.677 33.4519 35.557 31.8279 35.594 27.4379C35.614 24.9059 34.782 22.6559 33.247 21.1029C31.872 19.7099 30.01 18.9399 28.005 18.9299H27.992C25.988 18.9399 24.126 19.7099 22.75 21.1039C21.216 22.6569 20.382 24.9059 20.404 27.4379C20.441 31.7679 18.384 33.4049 18.302 33.4679C18.042 33.6609 17.936 33.9979 18.037 34.3059C18.139 34.6139 18.427 34.8209 18.749 34.8209H23.669C23.771 37.1309 25.666 38.9809 27.999 38.9809C30.332 38.9809 32.225 37.1309 32.326 34.8209H37.248C37.57 34.8209 37.858 34.6149 37.958 34.3069C38.061 33.9999 37.955 33.6619 37.695 33.4689L37.697 33.4679ZM28 37.4779C26.495 37.4779 25.27 36.3009 25.172 34.8199H30.828C30.728 36.2999 29.505 37.4799 28 37.4799V37.4779ZM20.38 33.3199C21.12 32.1879 21.928 30.2919 21.904 27.4239C21.886 25.2639 22.548 23.4419 23.817 22.1569C24.91 21.0499 26.397 20.4369 28 20.4299C29.603 20.4379 31.087 21.0499 32.18 22.1579C33.45 23.4429 34.113 25.2639 34.095 27.4249C34.071 30.2929 34.88 32.1899 35.62 33.3209H20.38V33.3199Z" fill="#171725"/>
<path d="M64.118 25.21C65.792 25.858 68.06 26.902 69.158 27.604L70.634 26.308C69.41 25.606 67.124 24.634 65.486 24.058L64.118 25.21ZM62.444 26.236V35.542H64.352V27.802H71.48V26.236H62.444ZM70.724 26.236V33.742C70.724 33.922 70.67 33.994 70.454 33.994C70.256 33.994 69.644 33.994 69.05 33.976C69.266 34.408 69.5 35.092 69.572 35.578C70.634 35.578 71.408 35.56 71.93 35.308C72.488 35.02 72.65 34.588 72.65 33.742V26.236H70.724ZM62.642 22.312V23.914H71.228V22.312H62.642ZM63.614 28.774V30.268H71.336V28.774H63.614ZM63.614 31.294V32.86H71.336V31.294H63.614ZM66.548 26.974V35.488H68.384V26.974H66.548ZM70.454 22.312V22.69C69.77 23.518 68.204 24.652 66.854 25.3C67.16 25.588 67.682 26.146 67.934 26.506C69.59 25.714 71.372 24.436 72.65 23.248L71.372 22.204L70.94 22.312H70.454ZM57.206 22.708C58.034 23.59 59.078 24.85 59.582 25.624L61.22 24.418C60.68 23.698 59.672 22.564 58.808 21.718L57.206 22.708ZM56.756 25.912V27.64H60.572V25.912H56.756ZM60.41 33.742L58.97 34.318C60.302 37.774 62.534 38.332 66.71 38.332C68.816 38.332 71.12 38.278 72.992 38.17C73.1 37.576 73.388 36.604 73.676 36.172C71.642 36.352 68.672 36.478 66.746 36.478C63.488 36.46 61.382 36.172 60.41 33.742ZM59.978 30.286V30.61C59.528 33.778 58.25 36.028 56.306 37.198C56.702 37.486 57.404 38.224 57.674 38.638C59.78 37.27 61.256 34.606 61.868 30.628L60.824 30.25L60.482 30.286H59.978ZM57.098 32.248C57.242 32.086 57.764 31.96 58.196 31.96H60.572L60.59 30.286H57.872L57.098 30.7V32.248ZM57.098 32.248C57.098 31.762 58.538 31.06 58.538 31.06C59.564 29.89 61.13 27.658 61.976 26.416L60.662 25.822L60.104 26.056V26.11C59.492 27.1 57.872 29.404 57.332 29.908C56.99 30.286 56.702 30.412 56.396 30.484C56.594 30.88 56.972 31.798 57.098 32.248ZM84.602 34.768V36.784H89.534V34.768H84.602ZM83.63 23.266V38.098H85.718V25.3H88.346V37.846H90.542V23.266H83.63ZM78.014 24.958V28.396C78.014 31.042 77.69 34.57 74.396 36.946C74.828 37.252 75.656 38.116 75.926 38.566C79.544 35.938 80.192 31.492 80.192 28.432V24.958H78.014ZM76.538 24.004V26.002H82.712V24.004H76.538ZM74.666 28.846V30.898H83.162V28.846H74.666ZM79.652 31.384L78.338 32.608C79.256 33.67 81.02 35.902 81.866 37.234L83.324 35.416C82.766 34.75 80.39 32.032 79.652 31.384ZM76.34 21.718C75.98 23.788 75.296 25.858 74.324 27.154C74.792 27.442 75.674 28.054 76.052 28.396C77.078 26.884 77.942 24.508 78.41 22.132L76.34 21.718Z" fill="#171725"/>
</g>
<defs>
<clipPath id="clip0_1929_1350">
<rect width="76" height="26" fill="white" transform="translate(16 16)"/>
</clipPath>
</defs>
</svg>
