<svg width="196" height="58" viewBox="0 0 196 58" fill="none" xmlns="http://www.w3.org/2000/svg">
<g clip-path="url(#clip0_1929_1053)">
<path d="M35.25 20H20.75C19.233 20 18 21.234 18 22.752V35.247C18 36.765 19.233 38 20.75 38H35.25C36.767 38 38 36.765 38 35.247V22.752C38 21.234 36.767 20 35.25 20ZM20.75 21.5H35.25C35.94 21.5 36.5 22.06 36.5 22.75V23.464L28.45 28.831C28.177 29.011 27.824 29.013 27.55 28.829L19.5 23.464V22.75C19.5 22.06 20.06 21.5 20.75 21.5ZM35.25 36.498H20.75C20.06 36.498 19.5 35.938 19.5 35.248V25.222L26.74 30.052C27.123 30.308 27.562 30.436 28 30.436C28.44 30.436 28.877 30.308 29.26 30.053L36.5 25.223V35.245C36.5 35.935 35.94 36.495 35.25 36.495V36.498Z" fill="black"/>
<circle cx="36" cy="22" r="3.5" fill="#FF6600" stroke="white"/>
<path d="M68.744 29.908C69.806 32.626 70.958 36.136 71.336 38.314L73.55 37.414C73.118 35.236 71.858 31.834 70.742 29.17L68.744 29.908ZM63.812 37.684C63.812 37.288 65.792 36.406 65.792 36.406V36.37C67.178 32.626 68.618 27.568 69.446 22.654L67.124 22.24C66.44 26.794 64.982 31.87 64.478 33.22C63.974 34.624 63.632 35.38 63.092 35.578C63.326 36.208 63.704 37.27 63.812 37.684ZM63.812 37.684C64.496 37.36 65.468 37.162 72.038 36.136C71.912 35.668 71.714 34.786 71.66 34.156L64.82 35.11L63.722 35.794L63.812 37.684ZM59.798 23.392V38.602H61.904V23.392H59.798ZM56.918 26.776V28.792H64.586V26.776H56.918ZM59.924 27.586C59.222 29.62 57.764 32.212 56.324 33.634C56.684 34.21 57.188 35.128 57.386 35.758C58.952 33.994 60.41 30.826 61.238 28.198L59.924 27.586ZM63.506 21.88C61.778 22.528 59.168 23.104 56.828 23.428C57.062 23.878 57.332 24.616 57.404 25.102C59.798 24.832 62.57 24.364 64.64 23.662L63.506 21.88ZM61.868 28.882L60.914 29.782C61.544 30.574 62.804 32.392 63.29 33.31L64.55 31.546C64.172 31.078 62.39 29.296 61.868 28.882ZM81.578 21.736C81.488 24.814 81.83 32.896 74.504 36.838C75.206 37.324 75.908 38.008 76.304 38.584C83.828 34.156 83.936 25.462 84.044 21.736H81.578ZM83.846 23.932L81.758 24.166C82.028 25.966 82.622 34.966 90.002 38.476C90.326 37.864 90.938 37.126 91.586 36.622C84.566 33.49 83.99 25.39 83.846 23.932ZM93.404 27.208V28.846H98.66V27.208H93.404ZM93.404 29.656V31.276H98.696V29.656H93.404ZM92.684 24.706V26.416H99.29V24.706H92.684ZM94.286 32.14V33.868H97.004V35.884H94.286V37.612H98.696V32.14H94.286ZM93.422 32.14V38.386H95.078V32.14H93.422ZM94.484 22.438C94.898 23.212 95.42 24.31 95.636 24.994L97.238 24.04C96.968 23.374 96.464 22.384 96.014 21.628L94.484 22.438ZM99.29 29.476V31.474H105.068V29.476H99.29ZM105.536 22.636C105.536 30.106 105.338 37.63 107.246 38.404C108.362 38.89 109.28 38.332 109.568 35.686C109.262 35.344 108.74 34.498 108.434 33.94C108.38 35.092 108.29 36.28 108.182 36.244C107.534 36.028 107.516 28.576 107.678 22.636H105.536ZM101.306 23.968V38.62H103.322V23.968H101.306ZM99.542 22.636V24.688H106.526V22.636H99.542ZM115.328 27.316H122.492V28.144H115.328V27.316ZM115.328 29.692H122.492V30.538H115.328V29.692ZM115.328 24.958H122.492V25.786H115.328V24.958ZM113.258 23.302V32.176H124.67V23.302H113.258ZM117.884 21.52C117.776 22.15 117.524 22.978 117.308 23.626L119.306 24.004C119.63 23.464 120.098 22.708 120.512 21.844L117.884 21.52ZM114.536 33.274V35.776C114.536 37.72 115.184 38.314 117.74 38.314C118.244 38.314 120.62 38.314 121.16 38.314C123.212 38.314 123.824 37.702 124.094 35.164C123.5 35.056 122.564 34.732 122.114 34.408C122.006 36.118 121.862 36.352 120.998 36.352C120.386 36.352 118.406 36.352 117.938 36.352C116.894 36.352 116.714 36.28 116.714 35.74V33.274H114.536ZM117.434 32.752C118.28 33.598 119.216 34.786 119.594 35.596L121.358 34.552C120.926 33.742 119.954 32.608 119.09 31.816L117.434 32.752ZM123.356 33.454C124.13 34.678 124.94 36.334 125.21 37.396L127.262 36.496C126.956 35.416 126.092 33.832 125.282 32.662L123.356 33.454ZM112.25 32.986C111.854 34.246 111.17 35.758 110.522 36.784L112.538 37.738C113.132 36.658 113.726 35.02 114.176 33.796L112.25 32.986Z" fill="#171725"/>
</g>
<defs>
<clipPath id="clip0_1929_1053">
<rect width="112" height="26" fill="white" transform="translate(16 16)"/>
</clipPath>
</defs>
</svg>



