<svg width="196" height="58" viewBox="0 0 196 58" fill="none" xmlns="http://www.w3.org/2000/svg">
<g clip-path="url(#clip0_1929_1356)">
<path d="M34.265 20.3139C30.815 16.8639 25.195 16.8639 21.745 20.3139C18.295 23.7539 18.295 29.3739 21.745 32.8239C23.245 34.3139 25.175 35.2039 27.255 35.3839V39.5239C27.255 39.8339 27.455 40.1239 27.755 40.2239C27.835 40.2539 27.925 40.2739 28.005 40.2739C28.225 40.2739 28.445 40.1739 28.595 39.9839L35.085 31.8739C37.715 28.3839 37.355 23.4039 34.265 20.3139ZM23.705 28.1839C23.705 27.7739 24.035 27.4339 24.455 27.4339H28.505C28.915 27.4339 29.255 27.7739 29.255 28.1839C29.255 28.5939 28.915 28.9339 28.505 28.9339H24.455C24.035 28.9339 23.705 28.5939 23.705 28.1839ZM32.305 24.9439C32.305 25.3639 31.965 25.6939 31.555 25.6939H24.455C24.035 25.6939 23.705 25.3639 23.705 24.9439C23.705 24.5339 24.035 24.1939 24.455 24.1939H31.555C31.965 24.1939 32.305 24.5339 32.305 24.9439Z" fill="#FF6600"/>
<path d="M66.674 32.158C68.06 34.174 69.788 36.928 70.562 38.638L72.794 37.432C71.912 35.758 70.238 33.184 68.78 31.204L66.674 32.158ZM61.292 22.132C60.194 24.742 58.304 27.37 56.378 28.99C56.936 29.404 57.89 30.34 58.304 30.826C60.266 28.936 62.372 25.858 63.704 22.906L61.292 22.132ZM58.754 37.99C58.754 37.54 60.374 36.766 60.374 36.766V36.712C62.57 34.57 64.892 31.528 66.656 28.432L64.118 27.37C62.714 30.358 60.428 33.436 59.654 34.228C58.952 35.02 58.484 35.506 57.872 35.668C58.196 36.316 58.61 37.522 58.754 37.99ZM58.754 37.99C59.69 37.612 61.004 37.54 70.94 36.748C70.796 36.244 70.562 35.326 70.454 34.678L60.122 35.344L58.682 36.136L58.754 37.99ZM66.584 22.15V23.356H67.052C67.988 26.038 69.77 28.954 72.128 30.772C72.488 30.088 73.28 29.062 73.784 28.594C71.552 27.226 69.896 24.688 69.122 22.15H66.584ZM64.568 22.15V24.382H68.33V22.15H64.568ZM78.626 29.728V31.438H87.356V29.728H78.626ZM78.356 32.806V34.57H87.644V32.806H78.356ZM83.756 30.268V38.296H85.646V30.268H83.756ZM80.246 30.34V33.778C80.246 34.696 79.85 36.442 78.32 37.378C78.77 37.666 79.418 38.242 79.706 38.62C81.596 37.324 82.082 34.948 82.082 33.796V30.34H80.246ZM76.484 24.868V26.272H81.02V24.868H76.484ZM84.836 24.868V26.272H89.39V24.868H84.836ZM88.544 22.402V36.082C88.544 36.352 88.454 36.46 88.166 36.46C87.896 36.46 86.996 36.46 86.204 36.424C86.492 36.982 86.78 37.99 86.834 38.566C88.22 38.584 89.156 38.53 89.822 38.17C90.47 37.81 90.668 37.198 90.668 36.118V22.402H88.544ZM76.682 22.402V23.95H80.354V27.262H76.682V28.81H82.388V22.402H76.682ZM89.642 22.402H83.558V28.846H89.642V27.298H85.61V23.95H89.642V22.402ZM75.404 22.402V38.62H77.528V22.402H75.404ZM102.584 21.808C101.738 22.6 100.316 23.644 99.29 24.22L100.496 25.372C101.576 24.85 102.98 23.986 104.15 23.122L102.584 21.808ZM99.272 35.254C99.578 35.002 100.082 34.714 102.854 33.832C102.782 33.454 102.728 32.77 102.728 32.284L99.758 33.112L99.11 33.706L99.272 35.254ZM104.438 23.464V38.638H106.148V25.246H108.128V23.464H104.438ZM107.174 23.464V33.544C107.174 33.724 107.12 33.778 106.994 33.778C106.868 33.796 106.472 33.796 106.076 33.778C106.31 34.264 106.544 35.11 106.58 35.65C107.372 35.65 107.93 35.596 108.398 35.272C108.83 34.948 108.938 34.39 108.938 33.58V23.464H107.174ZM102.17 25.048V30.25C102.17 32.482 101.9 35.596 99.128 37.252C99.542 37.594 100.082 38.242 100.316 38.656C103.448 36.586 103.88 33.112 103.88 30.268V25.048H102.17ZM92.774 22.402V24.292H99.002V22.402H92.774ZM94.34 26.254V28H97.49V26.254H94.34ZM94.34 29.926V31.672H97.49V29.926H94.34ZM93.494 23.428V34.732H95.258V23.428H93.494ZM96.428 23.41V38.62H98.228V23.41H96.428ZM92.432 34.318L92.792 36.298C94.196 36.01 95.906 35.65 97.562 35.29L97.418 33.472C95.564 33.796 93.71 34.138 92.432 34.318ZM99.272 35.254C99.272 34.696 101 33.706 101 33.706V24.22H99.272V32.644C99.272 33.4 98.858 33.778 98.534 33.976C98.768 34.246 99.146 34.894 99.272 35.254ZM120.098 29.512L118.082 30.016C119.54 34.264 121.934 37.126 126.146 38.476C126.47 37.864 127.118 36.946 127.622 36.478C123.698 35.452 121.25 32.932 120.098 29.512ZM111.818 22.924V25.138H126.128V22.924H111.818ZM111.134 28.342V30.574H126.848V28.342H111.134ZM117.704 23.68V26.974C117.704 29.98 117.002 34.39 110.522 36.676C110.972 37.108 111.656 37.99 111.926 38.53C119.126 35.884 119.99 30.718 119.99 26.992V23.68H117.704ZM135.848 31.456V37.072H138.08V31.456H135.848ZM131.096 26.236V28.072H142.958V26.236H131.096ZM129.026 36.226V38.134H145.046V36.226H129.026ZM130.61 32.842V34.696H143.606V32.842H130.61ZM138.728 28.666C139.97 29.674 141.482 31.114 142.166 32.05L143.858 30.898C143.102 29.944 141.518 28.576 140.294 27.64L138.728 28.666ZM129.08 23.158V26.632H131.186V25.102H142.688V26.632H144.902V23.158H129.08ZM131.42 31.924C131.42 31.564 132.59 31.024 132.59 31.024V30.988C134.138 30.106 135.722 28.864 136.982 27.604L135.326 26.434C134.21 27.802 132.608 29.08 132.086 29.404C131.6 29.764 131.204 29.998 130.808 30.052C131.024 30.592 131.312 31.528 131.42 31.924ZM131.42 31.924C132.14 31.636 133.166 31.564 141.86 30.88C141.752 30.52 141.608 29.818 141.536 29.332L132.464 29.926L131.384 30.556L131.42 31.924ZM135.542 22.06C135.884 22.744 136.244 23.68 136.352 24.238L138.566 23.59C138.44 22.996 138.026 22.114 137.648 21.466L135.542 22.06Z" fill="#FF6600"/>
</g>
<defs>
<clipPath id="clip0_1929_1356">
<rect width="130" height="26" fill="white" transform="translate(16 16)"/>
</clipPath>
</defs>
</svg>
